<mxfile host="Electron" modified="2023-09-26T06:28:52.577Z" agent="Mozilla/5.0 (Windows NT 10.0; Win64; x64) AppleWebKit/537.36 (KHTML, like Gecko) draw.io/21.7.5 Chrome/114.0.5735.289 Electron/25.8.1 Safari/537.36" etag="emW60GlEA9ZeUeYK83kR" version="21.7.5" type="device">
  <diagram id="DIm28ipCNTEhO13IbWkz" name="Страница 1">
    <mxGraphModel dx="588" dy="1005" grid="1" gridSize="10" guides="1" tooltips="1" connect="1" arrows="1" fold="1" page="1" pageScale="1" pageWidth="827" pageHeight="1169" math="0" shadow="0">
      <root>
        <mxCell id="0" />
        <mxCell id="1" parent="0" />
        <mxCell id="950CmGPbI7GBlJgkOp4G-3" style="edgeStyle=orthogonalEdgeStyle;rounded=0;orthogonalLoop=1;jettySize=auto;html=1;exitX=0.5;exitY=1;exitDx=0;exitDy=0;entryX=0.5;entryY=0;entryDx=0;entryDy=0;" parent="1" source="YyCJ3QGNMapWrHQM2Ghw-1" target="950CmGPbI7GBlJgkOp4G-2" edge="1">
          <mxGeometry relative="1" as="geometry" />
        </mxCell>
        <mxCell id="YyCJ3QGNMapWrHQM2Ghw-1" value="Начало" style="ellipse;whiteSpace=wrap;html=1;" parent="1" vertex="1">
          <mxGeometry x="280" width="160" height="70" as="geometry" />
        </mxCell>
        <mxCell id="950CmGPbI7GBlJgkOp4G-6" style="edgeStyle=orthogonalEdgeStyle;rounded=0;orthogonalLoop=1;jettySize=auto;html=1;exitX=0.5;exitY=1;exitDx=0;exitDy=0;entryX=0.5;entryY=0;entryDx=0;entryDy=0;" parent="1" source="YyCJ3QGNMapWrHQM2Ghw-3" target="950CmGPbI7GBlJgkOp4G-5" edge="1">
          <mxGeometry relative="1" as="geometry" />
        </mxCell>
        <mxCell id="YyCJ3QGNMapWrHQM2Ghw-3" value="while i &amp;lt;= 10 do" style="rounded=0;whiteSpace=wrap;html=1;" parent="1" vertex="1">
          <mxGeometry x="280" y="250" width="160" height="40" as="geometry" />
        </mxCell>
        <mxCell id="YyCJ3QGNMapWrHQM2Ghw-15" style="edgeStyle=orthogonalEdgeStyle;rounded=0;orthogonalLoop=1;jettySize=auto;html=1;entryX=0.5;entryY=0;entryDx=0;entryDy=0;endArrow=open;endFill=0;" parent="1" source="YyCJ3QGNMapWrHQM2Ghw-4" target="YyCJ3QGNMapWrHQM2Ghw-3" edge="1">
          <mxGeometry relative="1" as="geometry" />
        </mxCell>
        <mxCell id="YyCJ3QGNMapWrHQM2Ghw-4" value="i := 1;" style="rounded=0;whiteSpace=wrap;html=1;" parent="1" vertex="1">
          <mxGeometry x="280" y="190" width="160" height="40" as="geometry" />
        </mxCell>
        <mxCell id="YyCJ3QGNMapWrHQM2Ghw-12" style="edgeStyle=orthogonalEdgeStyle;rounded=0;orthogonalLoop=1;jettySize=auto;html=1;entryX=0.5;entryY=0;entryDx=0;entryDy=0;endArrow=open;endFill=0;" parent="1" source="YyCJ3QGNMapWrHQM2Ghw-7" target="YyCJ3QGNMapWrHQM2Ghw-8" edge="1">
          <mxGeometry relative="1" as="geometry" />
        </mxCell>
        <mxCell id="YyCJ3QGNMapWrHQM2Ghw-7" value="Вывод&amp;nbsp;writeln(&#39;Квадратный корень числа &#39;, num, &#39; = &#39;, root:0:2);" style="shape=parallelogram;perimeter=parallelogramPerimeter;whiteSpace=wrap;html=1;fixedSize=1;" parent="1" vertex="1">
          <mxGeometry x="255" y="750" width="210" height="80" as="geometry" />
        </mxCell>
        <mxCell id="YyCJ3QGNMapWrHQM2Ghw-8" value="Конец" style="ellipse;whiteSpace=wrap;html=1;" parent="1" vertex="1">
          <mxGeometry x="280" y="870" width="160" height="65" as="geometry" />
        </mxCell>
        <mxCell id="950CmGPbI7GBlJgkOp4G-4" style="edgeStyle=orthogonalEdgeStyle;rounded=0;orthogonalLoop=1;jettySize=auto;html=1;exitX=0.5;exitY=1;exitDx=0;exitDy=0;entryX=0.5;entryY=0;entryDx=0;entryDy=0;" parent="1" source="950CmGPbI7GBlJgkOp4G-2" target="YyCJ3QGNMapWrHQM2Ghw-4" edge="1">
          <mxGeometry relative="1" as="geometry" />
        </mxCell>
        <mxCell id="950CmGPbI7GBlJgkOp4G-2" value="Ввод i, num" style="shape=parallelogram;perimeter=parallelogramPerimeter;whiteSpace=wrap;html=1;fixedSize=1;" parent="1" vertex="1">
          <mxGeometry x="300" y="110" width="120" height="60" as="geometry" />
        </mxCell>
        <mxCell id="Kz8Fa1ru-EXA8408l-6k-2" style="edgeStyle=orthogonalEdgeStyle;rounded=0;orthogonalLoop=1;jettySize=auto;html=1;exitX=0.5;exitY=1;exitDx=0;exitDy=0;entryX=0.5;entryY=0;entryDx=0;entryDy=0;" edge="1" parent="1" source="950CmGPbI7GBlJgkOp4G-5" target="Kz8Fa1ru-EXA8408l-6k-1">
          <mxGeometry relative="1" as="geometry" />
        </mxCell>
        <mxCell id="950CmGPbI7GBlJgkOp4G-5" value="write(&#39;Введите число: &#39;);" style="rounded=0;whiteSpace=wrap;html=1;" parent="1" vertex="1">
          <mxGeometry x="285" y="320" width="150" height="60" as="geometry" />
        </mxCell>
        <mxCell id="Kz8Fa1ru-EXA8408l-6k-7" style="edgeStyle=orthogonalEdgeStyle;rounded=0;orthogonalLoop=1;jettySize=auto;html=1;exitX=0.5;exitY=1;exitDx=0;exitDy=0;entryX=0.5;entryY=0;entryDx=0;entryDy=0;" edge="1" parent="1" source="950CmGPbI7GBlJgkOp4G-7" target="Kz8Fa1ru-EXA8408l-6k-6">
          <mxGeometry relative="1" as="geometry" />
        </mxCell>
        <mxCell id="950CmGPbI7GBlJgkOp4G-7" value="if num &amp;lt; 0 then" style="rounded=0;whiteSpace=wrap;html=1;" parent="1" vertex="1">
          <mxGeometry x="130" y="470" width="150" height="60" as="geometry" />
        </mxCell>
        <mxCell id="Kz8Fa1ru-EXA8408l-6k-8" style="edgeStyle=orthogonalEdgeStyle;rounded=0;orthogonalLoop=1;jettySize=auto;html=1;exitX=0.5;exitY=1;exitDx=0;exitDy=0;entryX=0.5;entryY=0;entryDx=0;entryDy=0;" edge="1" parent="1" source="950CmGPbI7GBlJgkOp4G-9" target="Kz8Fa1ru-EXA8408l-6k-5">
          <mxGeometry relative="1" as="geometry" />
        </mxCell>
        <mxCell id="950CmGPbI7GBlJgkOp4G-9" value="if num = 0 then" style="rounded=0;whiteSpace=wrap;html=1;" parent="1" vertex="1">
          <mxGeometry x="450" y="470" width="150" height="60" as="geometry" />
        </mxCell>
        <mxCell id="Kz8Fa1ru-EXA8408l-6k-3" style="edgeStyle=orthogonalEdgeStyle;rounded=0;orthogonalLoop=1;jettySize=auto;html=1;exitX=0;exitY=0.5;exitDx=0;exitDy=0;entryX=0.5;entryY=0;entryDx=0;entryDy=0;" edge="1" parent="1" source="Kz8Fa1ru-EXA8408l-6k-1" target="950CmGPbI7GBlJgkOp4G-7">
          <mxGeometry relative="1" as="geometry" />
        </mxCell>
        <mxCell id="Kz8Fa1ru-EXA8408l-6k-4" style="edgeStyle=orthogonalEdgeStyle;rounded=0;orthogonalLoop=1;jettySize=auto;html=1;exitX=1;exitY=0.5;exitDx=0;exitDy=0;entryX=0.5;entryY=0;entryDx=0;entryDy=0;" edge="1" parent="1" source="Kz8Fa1ru-EXA8408l-6k-1" target="950CmGPbI7GBlJgkOp4G-9">
          <mxGeometry relative="1" as="geometry" />
        </mxCell>
        <mxCell id="Kz8Fa1ru-EXA8408l-6k-1" value="readln(num);" style="rhombus;whiteSpace=wrap;html=1;" vertex="1" parent="1">
          <mxGeometry x="300" y="400" width="120" height="90" as="geometry" />
        </mxCell>
        <mxCell id="Kz8Fa1ru-EXA8408l-6k-12" style="edgeStyle=orthogonalEdgeStyle;rounded=0;orthogonalLoop=1;jettySize=auto;html=1;exitX=0.5;exitY=1;exitDx=0;exitDy=0;entryX=0.5;entryY=0;entryDx=0;entryDy=0;" edge="1" parent="1" source="Kz8Fa1ru-EXA8408l-6k-5" target="Kz8Fa1ru-EXA8408l-6k-10">
          <mxGeometry relative="1" as="geometry" />
        </mxCell>
        <mxCell id="Kz8Fa1ru-EXA8408l-6k-5" value="writeln(&#39;Вы ввели ноль. Программа завершена.&#39;);" style="rounded=0;whiteSpace=wrap;html=1;" vertex="1" parent="1">
          <mxGeometry x="450" y="555" width="150" height="55" as="geometry" />
        </mxCell>
        <mxCell id="Kz8Fa1ru-EXA8408l-6k-13" style="edgeStyle=orthogonalEdgeStyle;rounded=0;orthogonalLoop=1;jettySize=auto;html=1;exitX=0.5;exitY=1;exitDx=0;exitDy=0;" edge="1" parent="1" source="Kz8Fa1ru-EXA8408l-6k-6">
          <mxGeometry relative="1" as="geometry">
            <mxPoint x="360" y="660" as="targetPoint" />
          </mxGeometry>
        </mxCell>
        <mxCell id="Kz8Fa1ru-EXA8408l-6k-6" value="writeln(&#39;Число отрицательное. Продолжаем дальше.&#39;);" style="rounded=0;whiteSpace=wrap;html=1;" vertex="1" parent="1">
          <mxGeometry x="130" y="555" width="150" height="60" as="geometry" />
        </mxCell>
        <mxCell id="Kz8Fa1ru-EXA8408l-6k-14" style="edgeStyle=orthogonalEdgeStyle;rounded=0;orthogonalLoop=1;jettySize=auto;html=1;exitX=0.5;exitY=1;exitDx=0;exitDy=0;entryX=0.5;entryY=0;entryDx=0;entryDy=0;" edge="1" parent="1" source="Kz8Fa1ru-EXA8408l-6k-10">
          <mxGeometry relative="1" as="geometry">
            <mxPoint x="360" y="750" as="targetPoint" />
          </mxGeometry>
        </mxCell>
        <mxCell id="Kz8Fa1ru-EXA8408l-6k-10" value="root := sqrt(num);" style="rounded=0;whiteSpace=wrap;html=1;" vertex="1" parent="1">
          <mxGeometry x="300" y="660" width="120" height="60" as="geometry" />
        </mxCell>
      </root>
    </mxGraphModel>
  </diagram>
</mxfile>
